<?xml version="1.0" encoding="UTF-8"?>
<svg version="1.1" xmlns="http://www.w3.org/2000/svg" width="325" height="360">
<path d="M0 0 C107.25 0 214.5 0 325 0 C325 118.8 325 237.6 325 360 C217.75 360 110.5 360 0 360 C0 241.2 0 122.4 0 0 Z " fill="#FDFDFD" transform="translate(0,0)"/>
<path d="M0 0 C21.91532553 10.38094367 21.91532553 10.38094367 31.1875 15.6875 C32.23228516 16.27853516 33.27707031 16.86957031 34.35351562 17.47851562 C42.59889535 22.15832574 50.78464619 26.93983279 58.96166992 31.73779297 C70.21334276 38.32688483 81.6067099 44.66008777 93 51 C101.1553894 55.53922688 109.28434611 60.11330728 117.3125 64.875 C118.25633545 65.42957886 118.25633545 65.42957886 119.21923828 65.99536133 C126.43968695 70.31906086 126.43968695 70.31906086 128 75 C128.09545802 76.89655282 128.1307352 78.79636002 128.1328125 80.6953125 C128.13474609 81.8714209 128.13667969 83.0475293 128.13867188 84.25927734 C128.13416016 85.53496582 128.12964844 86.8106543 128.125 88.125 C128.12306641 89.43549316 128.12113281 90.74598633 128.11914062 92.09619141 C128.06850172 107.40488051 127.54999893 122.7024234 127 138 C104.65998749 127.80473486 83.38605364 115.82572709 62.27636719 103.3059082 C60.2253161 102.12925953 58.11495866 101.05747933 56 100 C55.67 109.9 55.34 119.8 55 130 C56.65 130.66 58.3 131.32 60 132 C62.28481128 133.19430161 64.54442815 134.40809121 66.796875 135.66015625 C67.43111389 136.0100914 68.06535278 136.36002655 68.71881104 136.7205658 C70.05077638 137.45628299 71.38196152 138.19341428 72.71240234 138.93188477 C74.75553874 140.06557332 76.8013866 141.19424417 78.84765625 142.32226562 C80.1433913 143.03876937 81.43896985 143.75555623 82.734375 144.47265625 C83.34786804 144.81120132 83.96136108 145.1497464 84.59344482 145.49855042 C88.8842487 147.8842487 88.8842487 147.8842487 90 149 C90.09381302 150.84118029 90.11743954 152.68597641 90.11352539 154.52954102 C90.11341209 156.30126427 90.11341209 156.30126427 90.11329651 158.10877991 C90.10813522 159.3941716 90.10297394 160.67956329 90.09765625 162.00390625 C90.0962413 163.31205795 90.09482635 164.62020966 90.09336853 165.96800232 C90.0895441 169.45162859 90.07971446 172.93521339 90.06866455 176.41882324 C90.05844882 179.97126708 90.05387056 183.52371759 90.04882812 187.07617188 C90.03809212 194.05079832 90.0210166 201.02539717 90 208 C82.13289408 204.14210576 74.37461141 200.23163478 66.875 195.6875 C65.45641627 194.8360937 64.03716824 193.98579305 62.6171875 193.13671875 C62.01503418 192.77280029 61.41288086 192.40888184 60.79248047 192.03393555 C58.89734 190.94078384 56.96546425 189.96001 55 189 C55.01160156 189.70672852 55.02320313 190.41345703 55.03515625 191.14160156 C55.10735666 199.06043993 54.66034933 206.86150262 54 214.75 C53.85691406 216.52890625 53.85691406 216.52890625 53.7109375 218.34375 C53.47821242 221.22954096 53.24117291 224.11490492 53 227 C53.9178125 226.59007812 54.835625 226.18015625 55.78125 225.7578125 C57.02068806 225.21321093 58.26027975 224.66895889 59.5 224.125 C60.7065625 223.59132812 61.913125 223.05765625 63.15625 222.5078125 C77.49299555 216.66583499 96.50245889 216.61687271 111.078125 221.75390625 C112.04234375 222.16511719 113.0065625 222.57632813 114 223 C114.94359375 223.40089844 115.8871875 223.80179688 116.859375 224.21484375 C133.67135802 232.40712361 145.35104117 247.92834894 152 265 C157.44137579 282.01486103 153.44798128 301.43301607 145.46875 316.984375 C136.45097891 332.04235125 122.97437861 341.44335206 107 348 C106.19046875 348.34289062 105.3809375 348.68578125 104.546875 349.0390625 C90.44566951 354.17113389 74.01517954 351.15043477 60.53125 345.5625 C40.41745733 335.60138363 28.9158002 317.45266323 21.90234375 296.76171875 C21.21954374 294.51641826 20.5742515 292.27512973 20 290 C18.83984375 290.58007812 18.83984375 290.58007812 17.65625 291.171875 C11.77083333 294.11458333 5.88541667 297.05729167 0 300 C0 201 0 102 0 0 Z " fill="#FD9304" transform="translate(163,7)"/>
<path d="M0 0 C0 97.68 0 195.36 0 296 C-4.99847066 295.00030587 -8.76212372 293.47558294 -13.3125 291.3125 C-14.12195068 290.92964844 -14.93140137 290.54679687 -15.76538086 290.15234375 C-26.1344983 285.1244197 -35.99447031 279.17706379 -45.87133789 273.25585938 C-47.22204008 272.45897762 -48.59731203 271.70134398 -50 271 C-51.22067819 212.68219749 -52.33045307 154.33259354 -52 96 C-52.77186646 96.45717407 -52.77186646 96.45717407 -53.55932617 96.92358398 C-56.10166798 98.42887042 -58.64450813 99.933312 -61.1875 101.4375 C-62.15913086 102.01226074 -63.13076172 102.58702148 -64.13183594 103.17919922 C-69.84185202 106.55346241 -75.55861741 109.91559797 -81.28515625 113.26171875 C-81.89880035 113.6205011 -82.51244446 113.97928345 -83.14468384 114.34893799 C-85.63669759 115.8059104 -88.12870547 117.26287856 -90.62268066 118.7164917 C-96.6754982 122.24469051 -102.71298971 125.78428679 -108.63671875 129.52734375 C-109.46139648 130.0466748 -110.28607422 130.56600586 -111.13574219 131.10107422 C-112.61422032 132.03978551 -114.08564695 132.98974911 -115.54785156 133.95361328 C-119.64061495 136.5539028 -122.21166634 137.1946272 -127 137 C-132.23672056 78.44900735 -132.23672056 78.44900735 -124.703125 67.03515625 C-118.30108504 59.49460919 -107.16991586 56.0708412 -98.0625 52.9375 C-88.20492506 49.24390744 -79.37968276 43.36608758 -70.37109375 37.99414062 C-64.59639592 34.57816931 -58.76699179 31.25868337 -52.9375 27.9375 C-51.75509739 27.26274712 -50.57272427 26.58794255 -49.39038086 25.91308594 C-40.82169941 21.02516612 -32.23812961 16.16354522 -23.63916016 11.32910156 C-17.75927712 8.01830433 -11.944809 4.62699568 -6.20703125 1.07421875 C-4 0 -4 0 0 0 Z " fill="#FE8101" transform="translate(152,8)"/>
<path d="M0 0 C0.94359375 0.40089844 1.8871875 0.80179688 2.859375 1.21484375 C19.67135802 9.40712361 31.35104117 24.92834894 38 42 C43.44137579 59.01486103 39.44798128 78.43301607 31.46875 93.984375 C22.45097891 109.04235125 8.97437861 118.44335206 -7 125 C-7.80953125 125.34289062 -8.6190625 125.68578125 -9.453125 126.0390625 C-23.55433049 131.17113389 -39.98482046 128.15043477 -53.46875 122.5625 C-72.61779299 113.07916443 -83.56853374 96.44124656 -91 77 C-95.2059984 62.89154728 -92.87473856 44.95225421 -86.02490234 32.18212891 C-75.53685588 13.60372401 -61.55764533 2.42506882 -41.14599609 -3.54199219 C-28.25043902 -6.29421802 -12.10404528 -5.16201931 0 0 Z " fill="#475468" transform="translate(277,230)"/>
<path d="M0 0 C3.29688615 0.0638107 4.45905609 0.41781587 6.890625 2.703125 C10.64433646 7.84476339 12.73632179 12.50816641 13.8125 18.75 C14.13589881 20.08577771 14.46677213 21.41982666 14.8125 22.75 C16.7925 22.75 18.7725 22.75 20.8125 22.75 C20.998125 22.09 21.18375 21.43 21.375 20.75 C23.81469855 15.6584552 27.84472862 11.71777138 31.8125 7.75 C32.8025 7.75 33.7925 7.75 34.8125 7.75 C34.8125 19.63 34.8125 31.51 34.8125 43.75 C30.19792903 42.82708581 27.33846809 41.6597421 23.2265625 39.51171875 C22.29654922 39.0286602 22.29654922 39.0286602 21.3477478 38.5358429 C19.37455752 37.50889628 17.40611123 36.47319216 15.4375 35.4375 C14.12267914 34.75271097 12.80757741 34.06846095 11.4921875 33.38476562 C5.53446871 30.27802366 -0.36792125 27.1084455 -6.1875 23.75 C-6.24539006 20.29173658 -6.28105821 16.83359707 -6.3125 13.375 C-6.32925781 12.39015625 -6.34601563 11.4053125 -6.36328125 10.390625 C-6.36972656 9.44960938 -6.37617188 8.50859375 -6.3828125 7.5390625 C-6.39328613 6.66975098 -6.40375977 5.80043945 -6.41455078 4.90478516 C-5.99111598 0.88625233 -3.5870235 0.32104169 0 0 Z " fill="#F1F2F4" transform="translate(211.1875,297.25)"/>
<path d="M0 0 C3.31086364 1.32434546 6.21324177 2.56799007 9.30078125 4.25 C10.10612305 4.68852295 10.91146484 5.1270459 11.74121094 5.57885742 C15.29035226 7.54045557 18.82957261 9.51883399 22.35986328 11.51416016 C24.06614334 12.47443577 25.77775619 13.42532353 27.49560547 14.36474609 C29.76513635 15.60983919 32.00891869 16.89207134 34.25 18.1875 C34.93489502 18.55423828 35.61979004 18.92097656 36.32543945 19.29882812 C38.203125 20.41796875 38.203125 20.41796875 41 23 C42.02734246 27.25552782 41.25966964 30.49920854 39.25 34.375 C37.17441965 36.79651041 35.9820766 38.00597447 33 39 C32.34 39 31.68 39 31 39 C30.030625 39.825 29.06125 40.65 28.0625 41.5 C25 44 25 44 22 44 C20.27718296 41.9677305 18.79713576 40.00748779 17.3125 37.8125 C16.89677734 37.23435547 16.48105469 36.65621094 16.05273438 36.06054688 C13.41012517 32.22030197 13 30.87425741 13 26 C8.71 26.66 4.42 27.32 0 28 C0 18.76 0 9.52 0 0 Z " fill="#F4F5F5" transform="translate(205,266)"/>
<path d="M0 0 C1.23097862 0.62278901 2.45837443 1.2526745 3.68359375 1.88671875 C4.52905762 2.32161621 5.37452148 2.75651367 6.24560547 3.20458984 C9.17318431 4.72499825 12.0869207 6.26889511 14.99609375 7.82421875 C16.41124268 8.57687012 16.41124268 8.57687012 17.85498047 9.34472656 C29.86913693 15.91726456 29.86913693 15.91726456 32.68359375 19.88671875 C33.47466665 23.07371539 33.35747852 26.00428467 33.12109375 29.26171875 C33.08951172 30.09316406 33.05792969 30.92460937 33.02539062 31.78125 C32.9434546 33.81794537 32.81790874 35.85280602 32.68359375 37.88671875 C30.37359375 38.54671875 28.06359375 39.20671875 25.68359375 39.88671875 C25.60882813 39.02949219 25.5340625 38.17226563 25.45703125 37.2890625 C25.32554687 36.14566406 25.1940625 35.00226563 25.05859375 33.82421875 C24.94257813 32.69886719 24.8265625 31.57351563 24.70703125 30.4140625 C22.29283752 22.09338715 15.65842139 18.16837933 8.43359375 14.13671875 C7.63824219 13.66878906 6.84289062 13.20085937 6.0234375 12.71875 C-1.4745571 8.44283386 -9.51597772 4.87529509 -18.31640625 5.88671875 C-21.74075637 7.12153132 -21.74075637 7.12153132 -25.06640625 8.94921875 C-25.66767334 9.25851318 -26.26894043 9.56780762 -26.88842773 9.88647461 C-31.8259411 12.47832629 -36.40687309 15.51197424 -40.9140625 18.796875 C-43.31640625 19.88671875 -43.31640625 19.88671875 -46 19.1328125 C-46.76441406 18.72160156 -47.52882812 18.31039063 -48.31640625 17.88671875 C-48.97640625 17.55671875 -49.63640625 17.22671875 -50.31640625 16.88671875 C-50.31640625 16.22671875 -50.31640625 15.56671875 -50.31640625 14.88671875 C-47.90824185 13.23393841 -45.50393634 11.7015882 -43.00390625 10.19921875 C-41.53485459 9.30127459 -40.06610595 8.40283449 -38.59765625 7.50390625 C-37.870625 7.06143555 -37.14359375 6.61896484 -36.39453125 6.16308594 C-32.70446851 3.89667992 -29.08247482 1.52619676 -25.453125 -0.8359375 C-17.56035453 -5.55428475 -7.90186335 -3.66235101 0 0 Z " fill="#E6E7EA" transform="translate(264.31640625,243.11328125)"/>
<path d="M0 0 C0 14.52 0 29.04 0 44 C-14 52 -14 52 -15 52 C-15.33987007 46.00979006 -15.63398103 40.01990756 -15.87548828 34.02490234 C-15.95738408 32.03531615 -16.04669395 30.04601888 -16.14404297 28.05712891 C-16.27407164 25.24650911 -16.36101653 22.43752877 -16.4375 19.625 C-16.48390625 18.76495361 -16.5303125 17.90490723 -16.578125 17.01879883 C-16.65962275 12.31554526 -16.18800107 9.66658914 -13.09765625 6.01953125 C-12.0882249 4.98983451 -11.05797774 3.97975004 -10 3 C-9.34 2.360625 -8.68 1.72125 -8 1.0625 C-6 0 -6 0 0 0 Z " fill="#F5F6F7" transform="translate(270,290)"/>
<path d="M0 0 C0 9.57 0 19.14 0 29 C-2.26875 30.32 -4.5375 31.64 -6.875 33 C-7.58769043 33.41765625 -8.30038086 33.8353125 -9.03466797 34.265625 C-13.77777778 37 -13.77777778 37 -16 37 C-16.25594323 32.79284906 -16.47500935 28.58455162 -16.6875 24.375 C-16.76033203 23.18519531 -16.83316406 21.99539063 -16.90820312 20.76953125 C-17.43635224 9.64733221 -17.43635224 9.64733221 -14 5 C-9.13299135 1.2483475 -6.20644054 0 0 0 Z " fill="#F0F1F3" transform="translate(297,289)"/>
<path d="M0 0 C1.31867933 3.956038 1.62885892 6.59733241 -0.1015625 10.45703125 C-1.62457579 12.81184411 -3.0678309 14.96338933 -5 17 C-8.375 17.5625 -8.375 17.5625 -11 17 C-14.07692308 11.58461538 -14.07692308 11.58461538 -13.6875 8.625 C-13.460625 8.08875 -13.23375 7.5525 -13 7 C-11.7315625 6.938125 -11.7315625 6.938125 -10.4375 6.875 C-5.86428051 5.71090777 -3.33452895 3.22600877 0 0 Z " fill="#586578" transform="translate(237,303)"/>
</svg>
